<?xml version="1.0" encoding="UTF-8"?> <!-- Generator: Adobe Illustrator 16.0.1, SVG Export Plug-In . SVG Version: 6.00 Build 0) --> <svg xmlns="http://www.w3.org/2000/svg" xmlns:xlink="http://www.w3.org/1999/xlink" id="Layer_1" x="0px" y="0px" width="462.345px" height="73.512px" viewBox="0 0 462.345 73.512" xml:space="preserve"> <g> <path fill="#FFFFFF" d="M461.759,47.592c0,0-0.601-0.72-1.319-0.72c-0.721,0-1.561,0.72-1.561,0.72s0.143,1.073-0.225,2.131 c-0.458,1.313-1.456,2.669-1.456,2.669s-1.784,1.403-3.104,0.923s-0.975-2.362-0.975-2.362l4.32-15.6c0,0,1.305-4.928-1.771-7.357 c-3.495-2.768-10.59-2.722-10.59-2.722s-8.213-0.729-15.36-0.031c-6.952,0.683-13.92,3.03-13.92,3.03s-6.226,2.272-7.905,4.814 c-1.335,2.019-0.015,3.825,1.186,4.306s2.603,0.84,5.64,0.84c4.298,0,9.84-0.96,9.84-0.96s-1.223-3.157,1.883-4.627 c3.69-1.74,11.797-1.853,11.797-1.853s2.985,0.09,3.338,1.904c0.368,1.905-1.418,5.535-1.418,5.535l-13.56,1.2 c0,0-8.159,1.11-14.138,2.947c-4.807,1.478-8.302,4.253-8.302,4.253s-5.386,3.749-3.105,8.309c2.28,4.561,11.266,3.93,11.266,3.93 s7.957,0.646,13.941-1.252c6.136-1.942,10.298-6.428,10.298-6.428s-0.607,3.075,0.555,4.913c1.118,1.762,4.006,2.287,4.006,2.287 s7.904,0.787,12.803-0.405c4.439-1.087,6.637-4.034,6.637-4.034s1.41-1.897,1.725-3.57C462.57,48.89,461.759,47.592,461.759,47.592 z M436.799,46.872c0,0-1.957,1.957-4.732,3.48c-2.04,1.117-4.912,1.89-5.828,2.039c-2.159,0.36-4.643,0.66-5.587-0.989 c-0.976-1.711,0.428-4.05,1.507-5.131c1.08-1.079,16.801-4.919,16.801-4.919L436.799,46.872z"></path> <path fill="#FFFFFF" d="M371.516,27.065l9.604,7.567c0,0-0.766,4.207-2.745,7.566c-2.31,3.916-5.896,7.072-5.896,7.072 s-5.992,3.301-11.512,2.221c-5.521-1.08-2.647-6.06-2.647-6.06l6.96-18.239l-27.6-0.24l7.919,7.079l-4.319,12.239 c0,0-1.905,6.226,2.654,10.065c4.561,3.84,10.306,3.255,10.306,3.255s4.838,0.487,9.277-0.832 c5.52-1.644,10.882-5.768,10.882-5.768l-1.029,4.669l13.862,0.005l5.407,12.726l5.037-18.388l-6.303,0.025l8.704-24.91 L371.516,27.065z"></path> <path fill="#FFFFFF" d="M335.999,27.057l-27.839,0.137l10.08,7.919l-3.6,9.84c0,0-1.043,1.402-2.82,3.18 c-1.823,1.822-4.38,3.301-4.38,3.301s-5.888,1.297-8.655,0.396c-2.362-0.765-1.665-3.757-1.665-3.757l6.42-21.007l-26.341-0.009 l7.441,6.855l-4.801,15.359c0,0-0.6,5.94,2.28,8.761c2.88,2.819,9.24,2.52,9.24,2.52s4.845,0.067,9.622-1.493 c5.167-1.68,10.298-4.986,10.298-4.986l-0.848,3.604l27.966-0.015l-9.839-6.47L335.999,27.057z"></path> <polygon fill="#FFFFFF" points="275.76,27.193 247.678,27.057 256.799,34.633 255.12,38.112 237.958,38.043 241.918,27.057 211.678,27.057 221.76,35.353 216.24,51.912 204.65,57.671 240.295,57.661 233.76,50.952 236.64,43.272 253.44,43.272 251.04,51.433 243.353,57.656 275.815,57.656 268.08,50.473 "></polygon> <path fill="#FFFFFF" d="M208.08,49.271c0,0,5.782-6.651,3.022-13.251c-2.76-6.601-11.422-9.308-11.422-9.308 s-6.105-0.938-11.985,0.322c-5.25,1.133-10.335,4.478-10.335,4.478l1.679-4.426l-31.562-0.055l9.723,8.44l-10.32,27.839l-13.68,9 h44.4l-12.24-8.399l4.56-11.76c0,0,0.841,3.472,2.94,5.452c1.98,1.86,5.22,2.228,5.22,2.228s9.353,1.215,16.995-1.478 C202.424,55.767,208.08,49.271,208.08,49.271z M190.89,45.47c-2.641,6.239-6.57,6.683-6.57,6.683s-6.466,1.237-9.128-1.05 c-2.497-2.153-1.192-7.83-1.192-7.83s0.683-2.318,1.838-4.133c1.125-1.784,2.722-3.067,2.722-3.067s4.073-3.479,8.033-3.479 s5.407,2.76,5.407,2.76S193.53,39.23,190.89,45.47z"></path> <path fill="#FFFFFF" d="M140.88,58.152c0,0,3.038-1.065,4.605-3.083c1.777-2.287,2.115-5.558,2.115-5.558s0.173-1.289-0.697-1.725 c-0.81-0.405-2.183-0.195-2.183-0.195s-0.052,1.328-0.563,2.468c-0.45,1.013-1.357,1.853-1.357,1.853s-1.763,1.604-2.888,1.537 c-0.885-0.053-1.192-1.777-1.192-1.777l6.24-15.359c0,0,0.945-3.143-0.053-5.138c-1.042-2.084-4.627-3.622-4.627-3.622 s-6.938-2.453-15.96-2.513c-9.9-0.06-21.36,2.872-21.36,2.872s-4.68,1.156-7.005,3.548c-1.815,1.868-1.635,4.612-1.635,4.612 s-0.127,1.725,5.152,1.965c5.28,0.24,10.688-0.765,10.688-0.765s-0.375-2.527,1.74-4.042c2.317-1.658,7.14-2.318,7.14-2.318 s6.743,0.053,8.19,2.018c1.432,1.936-1.83,5.662-1.83,5.662l-18.12,1.561c0,0-8.04,1.185-13.373,3.622 c-4.267,1.942-5.708,5.737-5.708,5.737s-1.208,5.153,1.695,7.298c3.255,2.399,10.905,2.302,10.905,2.302s6.442,0.09,11.498-1.515 c5.145-1.635,8.663-5.444,8.663-5.444s0.277,4.837,4.77,6.188c2.107,0.637,5.002,0.982,7.597,0.885 C137.377,59.066,140.88,58.152,140.88,58.152z M119.077,49.691c-2.715,2.116-6.877,2.461-6.877,2.461s-3.855,0.337-5.032-0.961 c-1.103-1.222,0.532-4.139,0.532-4.139s2.325-1.763,6.098-2.67c4.185-1.005,10.042-1.11,10.042-1.11S122.047,47.374,119.077,49.691 z"></path> <path fill="#FFFFFF" d="M96.776,0l-47.04,0.011L62.64,11.113L17.039,48.479H5.759L0,70.392L16.798,57.66l53.282,0.012l6.72,15.84 l9.599-25.033l-6.24,0.005L96.776,0z M56.64,48.553l-25.38-0.061l41.76-36.239L56.64,48.553z"></path> <g> <path fill="#FFFFFF" d="M111.375,10.51v1.318h-2.235V10.51c-1.803-0.067-3.077-0.513-3.819-1.337 c-0.743-0.825-1.114-1.856-1.114-3.095c0-1.305,0.388-2.352,1.164-3.141c0.776-0.789,2.032-1.216,3.769-1.283V0.537h2.235v1.118 c1.793,0.067,3.063,0.509,3.812,1.326c0.748,0.817,1.121,1.853,1.121,3.106c0,1.244-0.373,2.275-1.118,3.095 S113.173,10.443,111.375,10.51z M109.14,8.606V3.558c-0.961,0-1.654,0.214-2.081,0.644c-0.426,0.429-0.64,1.078-0.64,1.946 C106.419,7.787,107.326,8.606,109.14,8.606z M111.375,8.606c0.596,0,1.108-0.1,1.538-0.301c0.429-0.2,0.733-0.47,0.913-0.809 c0.18-0.339,0.27-0.835,0.27-1.488c0-1.634-0.907-2.451-2.721-2.451V8.606z"></path> <path fill="#FFFFFF" d="M133.147,11.828h-2.482l-0.987-2.566h-4.517l-0.933,2.566h-2.42l4.401-11.299h2.413L133.147,11.828z M128.947,7.358l-1.557-4.193l-1.526,4.193H128.947z"></path> <path fill="#FFFFFF" d="M139.566,11.828V0.529h3.661c1.387,0,2.292,0.057,2.713,0.17c0.647,0.169,1.189,0.538,1.626,1.106 c0.437,0.568,0.655,1.301,0.655,2.2c0,0.694-0.126,1.277-0.377,1.75c-0.252,0.473-0.572,0.844-0.959,1.114 c-0.388,0.27-0.782,0.449-1.183,0.536c-0.545,0.108-1.333,0.162-2.366,0.162h-1.488v4.262H139.566z M141.848,2.44v3.206h1.249 c0.899,0,1.5-0.059,1.804-0.177c0.303-0.118,0.541-0.303,0.713-0.555c0.172-0.252,0.258-0.544,0.258-0.879 c0-0.411-0.121-0.75-0.362-1.017s-0.547-0.434-0.917-0.501c-0.272-0.051-0.82-0.077-1.642-0.077H141.848z"></path> <path fill="#FFFFFF" d="M155.065,11.828V0.529h3.415l2.05,7.708l2.027-7.708h3.421v11.299h-2.119V2.934l-2.243,8.895h-2.197 l-2.235-8.895v8.895H155.065z"></path> <path fill="#FFFFFF" d="M183.643,11.828h-2.482l-0.986-2.566h-4.517l-0.933,2.566h-2.42l4.401-11.299h2.412L183.643,11.828z M179.442,7.358l-1.557-4.193l-1.525,4.193H179.442z"></path> <path fill="#FFFFFF" d="M190.1,0.529h2.282v9.403h4.424V0.529h2.281v9.403h0.94v4.362h-1.896v-2.466H190.1V0.529z"></path> <path fill="#FFFFFF" d="M206.802,11.828V0.529h8.378V2.44h-6.098v2.505h5.674v1.904h-5.674v3.075h6.313v1.904H206.802z"></path> <path fill="#FFFFFF" d="M222.547,0.529h4.516c0.895,0,1.561,0.038,2,0.112c0.439,0.075,0.833,0.23,1.18,0.466 s0.636,0.551,0.867,0.944c0.23,0.393,0.347,0.833,0.347,1.322c0,0.529-0.143,1.015-0.428,1.457s-0.672,0.773-1.16,0.995 c0.688,0.2,1.218,0.542,1.588,1.025s0.555,1.051,0.555,1.703c0,0.514-0.119,1.014-0.358,1.5c-0.238,0.485-0.564,0.874-0.979,1.164 c-0.413,0.291-0.924,0.469-1.53,0.536c-0.38,0.042-1.298,0.067-2.751,0.077h-3.846V0.529z M224.828,2.41v2.613h1.496 c0.889,0,1.441-0.013,1.657-0.039c0.39-0.046,0.697-0.181,0.92-0.405c0.224-0.224,0.336-0.518,0.336-0.882 c0-0.35-0.097-0.633-0.289-0.852c-0.192-0.219-0.479-0.351-0.859-0.397c-0.227-0.026-0.876-0.039-1.949-0.039H224.828z M224.828,6.903v3.021h2.112c0.822,0,1.344-0.023,1.564-0.069c0.34-0.062,0.615-0.212,0.828-0.451 c0.214-0.239,0.32-0.559,0.32-0.96c0-0.339-0.082-0.626-0.246-0.863c-0.165-0.236-0.402-0.408-0.713-0.516 c-0.312-0.108-0.986-0.162-2.023-0.162H224.828z"></path> <path fill="#FFFFFF" d="M241.09,11.828V2.44h-3.354V0.529h8.979V2.44h-3.346v9.388H241.09z"></path> <path fill="#FFFFFF" d="M253.428,0.529h2.135v7.522l4.578-7.522h2.274v11.299h-2.136V4.452l-4.57,7.376h-2.281V0.529z"></path> <path fill="#FFFFFF" d="M269.766,0.529h2.282v2.698c0,0.874,0.032,1.453,0.096,1.738c0.064,0.285,0.256,0.533,0.575,0.744 c0.317,0.21,0.785,0.316,1.402,0.316c0.488,0,0.922-0.053,1.302-0.158c0.381-0.105,0.71-0.261,0.987-0.466V0.529h2.281v11.299 h-2.281V7.281c-0.462,0.206-0.918,0.361-1.364,0.466c-0.447,0.105-0.886,0.158-1.318,0.158c-1.125,0-2.066-0.266-2.825-0.797 c-0.758-0.532-1.137-1.453-1.137-2.763V0.529z"></path> <path fill="#FFFFFF" d="M286.252,11.828V0.529h8.377V2.44h-6.097v2.505h5.674v1.904h-5.674v3.075h6.313v1.904H286.252z"></path> <path fill="#FFFFFF" d="M309.219,7.674l2.212,0.701c-0.339,1.233-0.903,2.149-1.691,2.748c-0.79,0.599-1.79,0.898-3.003,0.898 c-1.5,0-2.733-0.513-3.699-1.538c-0.967-1.025-1.449-2.427-1.449-4.205c0-1.881,0.485-3.341,1.456-4.382 c0.972-1.041,2.249-1.561,3.831-1.561c1.383,0,2.506,0.408,3.369,1.225c0.514,0.483,0.898,1.177,1.155,2.081l-2.259,0.54 c-0.133-0.585-0.412-1.048-0.836-1.387c-0.423-0.339-0.939-0.509-1.545-0.509c-0.838,0-1.518,0.301-2.039,0.902 s-0.781,1.575-0.781,2.921c0,1.428,0.256,2.446,0.77,3.052c0.514,0.606,1.182,0.91,2.004,0.91c0.606,0,1.129-0.193,1.564-0.578 C308.715,9.107,309.029,8.501,309.219,7.674z"></path> <path fill="#FFFFFF" d="M318.636,0.529h2.281v4.81c0.509-0.051,0.853-0.182,1.032-0.393c0.181-0.21,0.458-0.796,0.833-1.757 c0.473-1.223,0.948-1.983,1.426-2.281c0.473-0.298,1.236-0.447,2.29-0.447c0.051,0,0.161-0.002,0.33-0.008V2.14l-0.323-0.007 c-0.468,0-0.81,0.058-1.024,0.173c-0.216,0.115-0.391,0.292-0.524,0.528s-0.332,0.722-0.594,1.457 c-0.139,0.391-0.289,0.717-0.451,0.979s-0.448,0.509-0.859,0.74c0.509,0.144,0.93,0.435,1.26,0.871 c0.332,0.437,0.696,1.053,1.091,1.85l1.542,3.099h-2.683l-1.348-2.921c-0.021-0.042-0.065-0.121-0.132-0.239 c-0.025-0.041-0.121-0.218-0.285-0.532c-0.293-0.555-0.533-0.902-0.721-1.041s-0.475-0.21-0.859-0.216v4.948h-2.281V0.529z"></path> <path fill="#FFFFFF" d="M343.63,11.828h-2.481l-0.987-2.566h-4.517l-0.933,2.566h-2.42l4.401-11.299h2.412L343.63,11.828z M339.43,7.358l-1.558-4.193l-1.526,4.193H339.43z"></path> <path fill="#FFFFFF" d="M356.808,11.828V7.111h-0.462c-0.719,0-1.227,0.108-1.522,0.324s-0.8,0.86-1.515,1.935l-1.648,2.458 h-2.729l1.379-2.204c0.545-0.874,0.979-1.486,1.303-1.838s0.729-0.667,1.218-0.944c-1.054-0.165-1.813-0.53-2.281-1.098 s-0.701-1.248-0.701-2.039c0-0.688,0.173-1.299,0.521-1.831c0.346-0.532,0.804-0.889,1.371-1.071 c0.567-0.183,1.417-0.274,2.548-0.274h4.802v11.299H356.808z M356.808,2.44h-1.78c-0.904,0-1.499,0.021-1.783,0.062 c-0.285,0.042-0.531,0.18-0.736,0.417c-0.206,0.236-0.309,0.544-0.309,0.925c0,0.396,0.099,0.71,0.297,0.944 c0.198,0.234,0.449,0.379,0.756,0.436c0.305,0.057,0.928,0.085,1.868,0.085h1.688V2.44z"></path> <path fill="#FFFFFF" d="M382.905,10.51v1.318h-2.236V10.51c-1.803-0.067-3.076-0.513-3.818-1.337 c-0.743-0.825-1.114-1.856-1.114-3.095c0-1.305,0.388-2.352,1.164-3.141c0.776-0.789,2.032-1.216,3.769-1.283V0.537h2.236v1.118 c1.793,0.067,3.063,0.509,3.811,1.326c0.748,0.817,1.121,1.853,1.121,3.106c0,1.244-0.372,2.275-1.117,3.095 S384.703,10.443,382.905,10.51z M380.668,8.606V3.558c-0.961,0-1.653,0.214-2.081,0.644c-0.426,0.429-0.639,1.078-0.639,1.946 C377.949,7.787,378.855,8.606,380.668,8.606z M382.905,8.606c0.596,0,1.107-0.1,1.537-0.301c0.429-0.2,0.733-0.47,0.913-0.809 c0.181-0.339,0.271-0.835,0.271-1.488c0-1.634-0.907-2.451-2.721-2.451V8.606z"></path> <path fill="#FFFFFF" d="M394.911,0.529h2.136v7.522l4.578-7.522h2.273v11.299h-2.135V4.452l-4.571,7.376h-2.281V0.529z"></path> <path fill="#FFFFFF" d="M411.434,11.828V0.529h3.661c1.388,0,2.292,0.057,2.714,0.17c0.646,0.169,1.189,0.538,1.626,1.106 s0.655,1.301,0.655,2.2c0,0.694-0.127,1.277-0.378,1.75c-0.252,0.473-0.572,0.844-0.96,1.114c-0.388,0.27-0.782,0.449-1.183,0.536 c-0.545,0.108-1.334,0.162-2.366,0.162h-1.488v4.262H411.434z M413.715,2.44v3.206h1.249c0.899,0,1.501-0.059,1.804-0.177 c0.303-0.118,0.541-0.303,0.713-0.555s0.258-0.544,0.258-0.879c0-0.411-0.12-0.75-0.361-1.017 c-0.242-0.267-0.548-0.434-0.918-0.501c-0.271-0.051-0.819-0.077-1.641-0.077H413.715z"></path> <path fill="#FFFFFF" d="M426.934,11.828V0.529h3.414l2.05,7.708l2.027-7.708h3.422v11.299h-2.119V2.934l-2.243,8.895h-2.197 l-2.234-8.895v8.895H426.934z"></path> <path fill="#FFFFFF" d="M455.511,11.828h-2.481l-0.986-2.566h-4.518l-0.932,2.566h-2.42l4.4-11.299h2.412L455.511,11.828z M451.311,7.358l-1.558-4.193l-1.525,4.193H451.311z"></path> </g> </g> </svg> 